<?xml version="1.0" encoding="iso-8859-1"?>
<!-- Generator: Adobe Illustrator 16.0.0, SVG Export Plug-In . SVG Version: 6.00 Build 0)  -->
<!DOCTYPE svg PUBLIC "-//W3C//DTD SVG 1.1//EN" "http://www.w3.org/Graphics/SVG/1.1/DTD/svg11.dtd">
<svg version="1.1" id="Layer_1" xmlns="http://www.w3.org/2000/svg" xmlns:xlink="http://www.w3.org/1999/xlink" x="0px" y="0px"
	 width="400px" height="400px" viewBox="0 0 400 400" style="enable-background:new 0 0 400 400;" xml:space="preserve">
<rect x="160" style="fill:#00FF00;" width="80" height="80"/>
<rect x="160" y="80" style="fill:#009900;" width="80" height="80"/>
<rect x="160" y="160" style="fill:#003300;" width="80" height="80"/>
<rect x="160" y="240" style="fill:#009900;" width="80" height="80"/>
<rect x="160" y="319.999" style="fill:#00FF00;" width="80" height="80.001"/>
<rect x="240" y="160" style="fill:#009900;" width="80" height="80"/>
<rect x="320" y="160" style="fill:#00FF00;" width="80" height="80"/>
<rect y="160" style="fill:#00FF00;" width="80" height="80"/>
<rect x="80" y="160" style="fill:#009900;" width="80" height="80"/>
<rect x="240" y="80" style="fill:#00FF00;" width="80" height="80"/>
<rect x="80" y="80" style="fill:#00FF00;" width="80" height="80"/>
<rect x="80" y="240" style="fill:#00FF00;" width="80" height="80"/>
<rect x="240" y="240" style="fill:#00FF00;" width="80" height="80"/>
<path style="fill:none;stroke:#FFFFFF;stroke-width:25;stroke-miterlimit:10;" d="M120.909,265.845c0,0,80,0,80-80s80-80,80-80"/>
</svg>
